<svg width="256" height="256" viewBox="0 0 256 256" fill="none" xmlns="http://www.w3.org/2000/svg">
<rect width="256" height="256" rx="16" fill="#050505"/>
<path d="M55.68 98.5974V54.7754C55.68 54.568 55.8485 54.3999 56.0564 54.3999H182.362C182.462 54.3999 182.557 54.4393 182.628 54.5095L200.849 72.643C200.92 72.7135 200.96 72.8092 200.96 72.9089V123.911C200.96 124.011 200.92 124.107 200.849 124.177L182.597 142.342C182.449 142.488 182.449 142.727 182.597 142.873L200.849 161.038C200.92 161.108 200.96 161.204 200.96 161.304V201.224C200.96 201.432 200.791 201.6 200.584 201.6H147.14C147.021 201.6 146.909 201.544 146.838 201.448L119.139 164.208C118.838 163.803 118.231 163.803 117.93 164.208L90.1181 201.6H56.0564C55.8485 201.6 55.68 201.432 55.68 201.224V136.46C55.68 136.438 55.6819 136.416 55.6858 136.395C57.1734 128.061 64.9966 124.053 68.9718 123.008C69.1444 122.963 69.3196 122.943 69.498 122.943H112.714C113.205 122.943 113.694 122.89 114.163 122.742C117.33 121.747 122.68 118.882 125.121 114.89L141.544 86.1035C141.565 86.0655 141.516 86.0274 141.484 86.0583L122.298 105.152C115.072 112.493 110.442 113.205 108.749 113.205H75.2514C59.8954 113.804 55.8055 103.716 55.68 98.5974Z" fill="#836EF9"/>
</svg>
