<svg width="22" height="22" viewBox="0 0 22 22" fill="none" xmlns="http://www.w3.org/2000/svg">
<path d="M4.72645 11.3513H2.76778C2.14053 11.3513 1.63245 11.8605 1.63245 12.4867V19.8858C1.63245 20.512 2.14161 21.0212 2.76778 21.0212H4.72753C5.35586 21.0212 5.86395 20.512 5.86395 19.8847V12.4867C5.86366 12.1854 5.74384 11.8965 5.53078 11.6834C5.31772 11.4704 5.02884 11.3505 4.72753 11.3502M11.9794 0.979492H10.0207C9.39236 0.979492 8.88428 1.48866 8.88428 2.11591V19.8837C8.88428 20.512 9.39345 21.0201 10.0218 21.0201H11.9794C12.6077 21.0201 13.1158 20.5109 13.1158 19.8837V2.11699C13.1158 1.48866 12.6066 0.980575 11.9783 0.980575M19.2323 6.58791H17.2725C16.6442 6.58791 16.1361 7.09708 16.1361 7.72541V19.8837C16.1361 20.512 16.6453 21.0201 17.2725 21.0201H19.2312C19.5325 21.0198 19.8214 20.9 20.0344 20.6869C20.2475 20.4739 20.3673 20.185 20.3676 19.8837V7.72433C20.3676 7.09599 19.8584 6.58791 19.2301 6.58791" stroke="#836EF9" stroke-width="1.40833" stroke-linecap="round" stroke-linejoin="round"/>
</svg>
