<svg width="24" height="16" viewBox="0 0 24 16" fill="none" xmlns="http://www.w3.org/2000/svg">
<path d="M19.9909 1.66555C17.914 0.627578 15.1484 0.078125 12 0.078125C8.85156 0.078125 6.08602 0.627578 4.00906 1.66555C1.98695 2.67609 0.828125 4.09695 0.828125 5.5625V10.4375C0.828125 11.903 1.98695 13.3239 4.00906 14.3345C6.08602 15.3724 8.85156 15.9219 12 15.9219C15.1484 15.9219 17.914 15.3724 19.9909 14.3345C22.013 13.3239 23.1719 11.903 23.1719 10.4375V5.5625C23.1719 4.09695 22.013 2.67609 19.9909 1.66555ZM4.55344 2.75633C6.43539 1.81484 9.08008 1.29688 12 1.29688C14.9199 1.29688 17.5646 1.81484 19.4466 2.75633C21.0391 3.55258 21.9531 4.57531 21.9531 5.5625C21.9531 6.54969 21.0391 7.57242 19.4466 8.36867C17.5646 9.31016 14.9199 9.82812 12 9.82812C9.08008 9.82812 6.43539 9.31016 4.55344 8.36867C2.96094 7.57242 2.04688 6.54969 2.04688 5.5625C2.04688 4.57531 2.96094 3.55258 4.55344 2.75633ZM11.3906 11.0398V14.696C9.43656 14.6473 7.6257 14.3629 6.10938 13.8723V10.277C7.66023 10.7351 9.4457 10.9951 11.3906 11.0398ZM12.6094 11.0398C14.5543 10.9951 16.3398 10.7351 17.8906 10.276V13.8713C16.3743 14.3619 14.5634 14.6462 12.6094 14.695V11.0398ZM2.04688 10.4375V8.10156C2.62667 8.65281 3.28863 9.11057 4.00906 9.45844C4.29073 9.59859 4.58458 9.72995 4.89062 9.8525V13.4072C4.77586 13.3544 4.66313 13.3056 4.55344 13.2467C2.96094 12.4474 2.04688 11.4247 2.04688 10.4375ZM19.4466 13.2437C19.3369 13.2985 19.2241 13.3513 19.1094 13.4041V9.84945C19.4147 9.7269 19.7086 9.59555 19.9909 9.45539C20.7112 9.10845 21.3731 8.65173 21.9531 8.10156V10.4375C21.9531 11.4247 21.0391 12.4474 19.4466 13.2437Z" fill="#836EF9"/>
</svg>
