<svg width="14" height="14" viewBox="0 0 14 14" fill="none" xmlns="http://www.w3.org/2000/svg">
<path d="M2 0C0.896875 0 0 0.896875 0 2V12C0 13.1031 0.896875 14 2 14H12C13.1031 14 14 13.1031 14 12V2C14 0.896875 13.1031 0 12 0H2ZM5.75 9.5H6.5V7.5H5.75C5.33437 7.5 5 7.16563 5 6.75C5 6.33437 5.33437 6 5.75 6H7.25C7.66563 6 8 6.33437 8 6.75V9.5H8.25C8.66562 9.5 9 9.83438 9 10.25C9 10.6656 8.66562 11 8.25 11H5.75C5.33437 11 5 10.6656 5 10.25C5 9.83438 5.33437 9.5 5.75 9.5ZM7 3C7.26522 3 7.51957 3.10536 7.70711 3.29289C7.89464 3.48043 8 3.73478 8 4C8 4.26522 7.89464 4.51957 7.70711 4.70711C7.51957 4.89464 7.26522 5 7 5C6.73478 5 6.48043 4.89464 6.29289 4.70711C6.10536 4.51957 6 4.26522 6 4C6 3.73478 6.10536 3.48043 6.29289 3.29289C6.48043 3.10536 6.73478 3 7 3Z" fill="#999999"/>
</svg>
