<svg width="16" height="16" viewBox="0 0 16 16" fill="none" xmlns="http://www.w3.org/2000/svg">
<path fill-rule="evenodd" clip-rule="evenodd" d="M0.942184 7.99958C0.942184 4.10173 4.10202 0.941895 7.99987 0.941895C11.8977 0.941895 15.0576 4.10173 15.0576 7.99958C15.0576 11.8974 11.8977 15.0573 7.99987 15.0573C4.10202 15.0573 0.942184 11.8974 0.942184 7.99958ZM7.99987 1.94189C4.65431 1.94189 1.94218 4.65402 1.94218 7.99958C1.94218 11.3451 4.65431 14.0573 7.99987 14.0573C11.3454 14.0573 14.0576 11.3451 14.0576 7.99958C14.0576 4.65402 11.3454 1.94189 7.99987 1.94189ZM8.79989 11.1999C8.79989 11.6417 8.44172 11.9999 7.99989 11.9999C7.55807 11.9999 7.19989 11.6417 7.19989 11.1999C7.19989 10.758 7.55807 10.3999 7.99989 10.3999C8.44172 10.3999 8.79989 10.758 8.79989 11.1999ZM6.36667 6.66654C6.36667 5.8927 7.0325 5.16654 8.00001 5.16654C8.96752 5.16654 9.63334 5.8927 9.63334 6.66654C9.63334 7.23874 9.30909 7.52891 8.80707 7.83388C8.74839 7.86954 8.68215 7.90801 8.61221 7.94863C8.41799 8.06143 8.19518 8.19083 8.02603 8.32263C7.77617 8.51732 7.50001 8.81993 7.50001 9.27988C7.50001 9.55602 7.72387 9.77988 8.00001 9.77988C8.27615 9.77988 8.50001 9.55602 8.50001 9.27987L8.49997 9.27875C8.49948 9.26904 8.49718 9.22324 8.64065 9.11145C8.75355 9.02349 8.8815 8.94931 9.04607 8.85389L9.04609 8.85388C9.12922 8.80569 9.22168 8.75208 9.32627 8.68854C9.89093 8.34551 10.6333 7.79568 10.6333 6.66654C10.6333 5.30705 9.48583 4.16654 8.00001 4.16654C6.51418 4.16654 5.36667 5.30705 5.36667 6.66654C5.36667 6.94269 5.59053 7.16654 5.86667 7.16654C6.14282 7.16654 6.36667 6.94269 6.36667 6.66654Z" fill="#999999"/>
</svg>
