<svg width="204" height="24" viewBox="0 0 204 24" fill="none" xmlns="http://www.w3.org/2000/svg">
<path d="M6.04561 14.0487V23.1251H0.563538V0.818176H26.3509C26.7837 0.818176 27.1444 1.13236 27.1444 1.55127V13.2807C27.1444 13.6996 26.7837 14.0487 26.3509 14.0487H18.9213L27.1444 23.1251H20.2197C20.0033 23.1251 19.7869 23.0204 19.6426 22.8807L11.6359 14.0487H6.04561ZM6.04561 6.12436V8.74254H22.4558V6.12436H6.04561Z" fill="#836EF9"/>
<path d="M53.8926 6.08945H35.1382V8.74254H51.5483V14.0487H35.1382V17.8189H53.8926L56.2369 23.1251H29.6561V0.818176H56.2369L53.8926 6.08945Z" fill="#836EF9"/>
<path d="M66.331 18.4822L63.8424 23.1251H57.6751L69.6491 0.818176H77.4755L89.4855 23.1251H83.2822L80.7936 18.4822H66.331ZM72.9672 6.08945L68.7835 13.944H78.3771L74.1574 6.08945H72.9672Z" fill="#836EF9"/>
<path d="M116.323 23.1251H92.8437C91.9781 23.1251 91.2928 22.4269 91.2928 21.624V2.31927C91.2928 1.48145 91.9781 0.818176 92.8437 0.818176H116.323C117.188 0.818176 117.874 1.48145 117.874 2.31927V5.35636L112.392 7.62545V6.08945H96.7749V17.8189H112.392V15.5498L117.874 14.0487V21.624C117.874 22.4269 117.188 23.1251 116.323 23.1251Z" fill="#836EF9"/>
<path d="M130.231 6.12436H122.008L119.664 0.818176H146.245L143.901 6.12436H135.677V23.1251H130.231V6.12436Z" fill="#836EF9"/>
<path d="M173.064 23.1251H149.585C148.719 23.1251 148.034 22.4269 148.034 21.624V2.31927C148.034 1.48145 148.719 0.818176 149.585 0.818176H173.064C173.929 0.818176 174.615 1.48145 174.615 2.31927V21.624C174.615 22.4269 173.929 23.1251 173.064 23.1251ZM153.516 6.08945V17.8189H169.133V6.08945H153.516Z" fill="#836EF9"/>
<path d="M182.256 14.0487V23.1251H176.774V0.818176H202.562C202.994 0.818176 203.355 1.13236 203.355 1.55127V13.2807C203.355 13.6996 202.994 14.0487 202.562 14.0487H195.132L203.355 23.1251H196.43C196.214 23.1251 195.997 23.0204 195.853 22.8807L187.847 14.0487H182.256ZM182.256 6.12436V8.74254H198.666V6.12436H182.256Z" fill="#836EF9"/>
</svg>
