<svg width="24" height="24" viewBox="0 0 24 24" fill="none" xmlns="http://www.w3.org/2000/svg">
<rect width="24" height="24" rx="12" fill="white"/>
<path d="M5.5 9.40331V5.53316C5.5 5.51485 5.51508 5.5 5.53368 5.5H16.8358C16.8447 5.5 16.8533 5.50348 16.8596 5.50968L18.4901 7.11115C18.4964 7.11737 18.5 7.12582 18.5 7.13463V11.6389C18.5 11.6477 18.4964 11.6562 18.4901 11.6624L16.8568 13.2666C16.8436 13.2796 16.8436 13.3006 16.8568 13.3136L18.4901 14.9178C18.4964 14.924 18.5 14.9324 18.5 14.9412V18.4668C18.5 18.4852 18.4849 18.5 18.4663 18.5H13.684C13.6734 18.5 13.6634 18.495 13.657 18.4866L11.1784 15.1977C11.1515 15.162 11.0972 15.162 11.0703 15.1977L8.58161 18.5H5.53368C5.51508 18.5 5.5 18.4852 5.5 18.4668V12.7472C5.5 12.7452 5.50018 12.7433 5.50052 12.7414C5.63364 12.0054 6.33367 11.6515 6.68939 11.5592C6.70483 11.5552 6.7205 11.5534 6.73647 11.5534H10.6035C10.6475 11.5534 10.6912 11.5487 10.7332 11.5357C11.0166 11.4478 11.4953 11.1947 11.7137 10.8422L13.1833 8.29991C13.1852 8.29655 13.1808 8.29319 13.178 8.29592L11.4611 9.98219C10.8145 10.6305 10.4003 10.6934 10.2487 10.6934H7.2513C5.8772 10.7463 5.51123 9.85539 5.5 9.40331Z" fill="#836EF9"/>
</svg>
