<svg width="14" height="16" viewBox="0 0 14 16" fill="none" xmlns="http://www.w3.org/2000/svg">
<path fill-rule="evenodd" clip-rule="evenodd" d="M4.32246 0.755836C4.43668 0.803144 4.5343 0.883263 4.60298 0.986058C4.67166 1.08885 4.70831 1.20971 4.7083 1.33334V14.6667C4.7083 14.8324 4.64245 14.9914 4.52524 15.1086C4.40803 15.2258 4.24906 15.2917 4.0833 15.2917C3.91754 15.2917 3.75857 15.2258 3.64136 15.1086C3.52415 14.9914 3.4583 14.8324 3.4583 14.6667V2.84167L1.19163 5.10834C1.13441 5.16974 1.06541 5.21899 0.988748 5.25315C0.912082 5.28731 0.82932 5.30568 0.7454 5.30716C0.661482 5.30864 0.578124 5.29321 0.5003 5.26177C0.422478 5.23034 0.351782 5.18355 0.292433 5.1242C0.233084 5.06485 0.186296 4.99416 0.154862 4.91633C0.123428 4.83851 0.107991 4.75515 0.109472 4.67123C0.110953 4.58732 0.12932 4.50455 0.163481 4.42789C0.19764 4.35122 0.246892 4.28222 0.308297 4.225L3.64163 0.891669C3.72898 0.80426 3.84027 0.744703 3.96145 0.720526C4.08264 0.696349 4.20826 0.708637 4.32246 0.755836ZM9.91663 0.708336C10.0824 0.708336 10.2414 0.774184 10.3586 0.891394C10.4758 1.0086 10.5416 1.16758 10.5416 1.33334V13.1583L12.8083 10.8917C12.9268 10.7813 13.0835 10.7212 13.2454 10.724C13.4073 10.7269 13.5618 10.7925 13.6763 10.907C13.7908 11.0215 13.8564 11.176 13.8593 11.3379C13.8621 11.4998 13.802 11.6565 13.6916 11.775L10.3583 15.1083C10.2709 15.1956 10.1596 15.2551 10.0384 15.2791C9.91725 15.3032 9.79167 15.2908 9.67753 15.2436C9.56339 15.1963 9.46582 15.1163 9.39714 15.0136C9.32846 14.9109 9.29174 14.7902 9.29163 14.6667V1.33334C9.29163 1.16758 9.35748 1.0086 9.47469 0.891394C9.5919 0.774184 9.75087 0.708336 9.91663 0.708336Z" fill="#999999"/>
</svg>
