<svg width="10" height="10" viewBox="0 0 10 10" fill="none" xmlns="http://www.w3.org/2000/svg">
<path d="M9.02355 3.02508C9.25793 2.79072 9.25793 2.41014 9.02355 2.17578L7.22355 0.375959C6.98918 0.141607 6.60855 0.141607 6.37418 0.375959C6.1398 0.610312 6.1398 0.990899 6.37418 1.22525L7.15043 2.00143H1.3998C1.06793 2.00143 0.799805 2.26952 0.799805 2.60137C0.799805 2.93321 1.06793 3.20131 1.3998 3.20131H7.15043L6.37418 3.97748C6.1398 4.21183 6.1398 4.59242 6.37418 4.82677C6.60855 5.06113 6.98918 5.06113 7.22355 4.82677L9.02355 3.02695V3.02508ZM2.77418 9.62443C3.00855 9.85878 3.38918 9.85878 3.62355 9.62443C3.85793 9.39008 3.85793 9.00949 3.62355 8.77514L2.84918 8.00084H8.5998C8.93168 8.00084 9.1998 7.73274 9.1998 7.4009C9.1998 7.06906 8.93168 6.80096 8.5998 6.80096H2.84918L3.62543 6.02478C3.8598 5.79043 3.8598 5.40984 3.62543 5.17549C3.39105 4.94114 3.01043 4.94114 2.77605 5.17549L0.976055 6.97532C0.74168 7.20967 0.74168 7.59026 0.976055 7.82461L2.77605 9.62443H2.77418Z" fill="#9FA4B1"/>
</svg>
