<svg width="20" height="20" viewBox="0 0 20 20" fill="none" xmlns="http://www.w3.org/2000/svg">
<path fill-rule="evenodd" clip-rule="evenodd" d="M1.30273 9.99984C1.30273 5.19657 5.19657 1.30273 9.99984 1.30273C14.8031 1.30273 18.697 5.19657 18.697 9.99984C18.697 14.8031 14.8031 18.697 9.99984 18.697C5.19657 18.697 1.30273 14.8031 1.30273 9.99984ZM4.92211 4.21507C6.16031 3.12735 7.75063 2.43085 9.49995 2.31871V8.79291L4.92211 4.21507ZM4.21501 4.92218C3.12731 6.16038 2.43083 7.7507 2.3187 9.50001H8.79284L4.21501 4.92218ZM8.79284 10.5H2.31873C2.43092 12.2493 3.12745 13.8395 4.21517 15.0777L8.79284 10.5ZM4.9223 15.7848C6.16047 16.8724 7.75072 17.5688 9.49995 17.681V11.2071L4.9223 15.7848ZM10.4999 11.2071V17.681C12.2491 17.5688 13.8394 16.8723 15.0775 15.7847L10.4999 11.2071ZM15.7846 15.0776C16.8723 13.8394 17.5688 12.2492 17.681 10.5H11.2071L15.7846 15.0776ZM11.2071 9.50001H17.681C17.5689 7.75076 16.8724 6.16048 15.7848 4.9223L11.2071 9.50001ZM15.0777 4.21517C13.8395 3.12743 12.2492 2.43091 10.4999 2.31872V8.79291L15.0777 4.21517Z" fill="#999999"/>
</svg>
