<svg width="20" height="20" viewBox="0 0 20 20" fill="none" xmlns="http://www.w3.org/2000/svg">
<path fill-rule="evenodd" clip-rule="evenodd" d="M1.30278 9.99984C1.30278 5.19657 5.19661 1.30273 9.99989 1.30273C14.8031 1.30273 18.697 5.19657 18.697 9.99984C18.697 14.8031 14.8031 18.697 9.99989 18.697C5.19661 18.697 1.30278 14.8031 1.30278 9.99984ZM4.92216 4.21507C6.16035 3.12735 7.75068 2.43085 9.49999 2.31871V8.79291L4.92216 4.21507ZM4.21505 4.92218C3.12735 6.16038 2.43087 7.7507 2.31875 9.50001H8.79289L4.21505 4.92218ZM8.79289 10.5H2.31877C2.43097 12.2493 3.12749 13.8395 4.21522 15.0777L8.79289 10.5ZM4.92234 15.7848C6.16051 16.8724 7.75076 17.5688 9.49999 17.681V11.2071L4.92234 15.7848ZM10.5 11.2071V17.681C12.2492 17.5688 13.8394 16.8723 15.0775 15.7847L10.5 11.2071ZM15.7846 15.0776C16.8723 13.8394 17.5688 12.2492 17.681 10.5H11.2071L15.7846 15.0776ZM11.2071 9.50001H17.681C17.5689 7.75076 16.8725 6.16048 15.7848 4.9223L11.2071 9.50001ZM15.0777 4.21517C13.8396 3.12743 12.2493 2.43091 10.5 2.31872V8.79291L15.0777 4.21517Z" fill="#999999"/>
</svg>
