<svg width="7" height="4" viewBox="0 0 7 4" fill="none" xmlns="http://www.w3.org/2000/svg">
<path d="M0 3.96582V3.28394H6.31641V3.96582H0ZM0.00512695 1.90991C0.179443 1.50659 0.410156 1.17163 0.697266 0.905029C0.984375 0.63501 1.32446 0.5 1.71753 0.5C2.12769 0.5 2.61646 0.679443 3.18384 1.03833C3.75122 1.39722 4.18188 1.57666 4.47583 1.57666C4.76636 1.57666 5.00903 1.49976 5.20386 1.34595C5.39868 1.19214 5.59521 0.952881 5.79346 0.628174L6.20361 0.905029C6.05664 1.20923 5.82422 1.51685 5.50635 1.82788C5.18848 2.1355 4.80225 2.28931 4.34766 2.28931C3.91016 2.28931 3.40942 2.10986 2.84546 1.75098C2.28491 1.39209 1.85596 1.21265 1.55859 1.21265C1.30908 1.21265 1.09033 1.29126 0.902344 1.44849C0.714355 1.60571 0.548584 1.83472 0.405029 2.1355L0.00512695 1.90991Z" fill="#9FA4B1"/>
</svg>
